<!DOCTYPE svg PUBLIC "-//W3C//DTD SVG 1.1//EN" "http://www.w3.org/Graphics/SVG/1.1/DTD/svg11.dtd">
<!-- Uploaded to: SVG Repo, www.svgrepo.com, Transformed by: SVG Repo Mixer Tools -->
<svg version="1.1" id="Layer_1" xmlns="http://www.w3.org/2000/svg" xmlns:xlink="http://www.w3.org/1999/xlink" viewBox="0 0 512 512" xml:space="preserve" width="800px" height="800px" fill="#000000">
<g id="SVGRepo_bgCarrier" stroke-width="0"/>
<g id="SVGRepo_tracerCarrier" stroke-linecap="round" stroke-linejoin="round"/>
<g id="SVGRepo_iconCarrier"> <g> <path style="fill:#FFFFFF;" d="M151.273,162.909h69.818h69.818h69.818c6.412,0,11.636,5.213,11.636,11.636v34.909H139.636v-34.909 C139.636,168.122,144.861,162.909,151.273,162.909z"/> <path style="fill:#FFFFFF;" d="M151.273,465.455c-6.412,0-11.636-5.213-11.636-11.636V232.727h46.545v11.636 c0,19.247,15.663,34.909,34.909,34.909h23.273v186.182H151.273z"/> <path style="fill:#FFFFFF;" d="M360.727,465.455h-93.091V279.273h23.273c19.247,0,34.909-15.663,34.909-34.909v-11.636h46.545 v221.091C372.364,460.241,367.139,465.455,360.727,465.455z"/> </g> <rect x="151.273" y="174.545" style="fill:#fa8238;" width="209.455" height="279.273"/> <path style="fill:#FFFFFF;" d="M314.182,221.091v23.273c0,12.858-10.415,23.273-23.273,23.273h-69.818 c-12.858,0-23.273-10.415-23.273-23.273v-23.273H314.182z"/> <path style="fill:#00384E;" d="M360.727,139.636h-58.182V23.273h11.636c6.423,0,11.636-5.201,11.636-11.636 C325.818,5.213,320.605,0,314.182,0h-23.273h-69.818h-23.273c-6.423,0-11.636,5.213-11.636,11.636 c0,6.435,5.213,11.636,11.636,11.636h11.636v116.364h-58.182c-19.247,0-34.909,15.663-34.909,34.909v279.273 c0,19.247,15.663,34.909,34.909,34.909c0,12.835,10.438,23.273,23.273,23.273c12.835,0,23.273-10.438,23.273-23.273h116.364 c0,12.835,10.438,23.273,23.273,23.273c12.835,0,23.273-10.438,23.273-23.273c19.247,0,34.909-15.663,34.909-34.909V174.545 C395.636,155.299,379.974,139.636,360.727,139.636z M232.727,23.273h46.545v116.364h-46.545V23.273z M151.273,162.909h69.818h69.818 h69.818c6.412,0,11.636,5.213,11.636,11.636v34.909H139.636v-34.909C139.636,168.122,144.861,162.909,151.273,162.909z M221.091,256 c-6.412,0-11.636-5.213-11.636-11.636v-11.636h93.091v11.636c0,6.423-5.225,11.636-11.636,11.636H221.091z M151.273,465.455 c-6.412,0-11.636-5.213-11.636-11.636V232.727h46.545v11.636c0,19.247,15.663,34.909,34.909,34.909h23.273v186.182H151.273z M360.727,465.455h-93.091V279.273h23.273c19.247,0,34.909-15.663,34.909-34.909v-11.636h46.545v221.091 C372.364,460.241,367.139,465.455,360.727,465.455z"/> </g>
</svg>