<svg xmlns="http://www.w3.org/2000/svg" xmlns:xlink="http://www.w3.org/1999/xlink" width="500" zoomAndPan="magnify" viewBox="0 0 375 374.999991" height="500" preserveAspectRatio="xMidYMid meet" version="1.0"><defs><g/><clipPath id="bee0e69983"><path d="M 8 6 L 366.847656 6 L 366.847656 368.347656 L 8 368.347656 Z M 8 6 " clip-rule="nonzero"/></clipPath><clipPath id="2d69185160"><path d="M 25.402344 6.847656 L 349.597656 6.847656 C 354.171875 6.847656 358.558594 8.664062 361.796875 11.898438 C 365.03125 15.136719 366.847656 19.523438 366.847656 24.097656 L 366.847656 350.902344 C 366.847656 355.476562 365.03125 359.863281 361.796875 363.101562 C 358.558594 366.335938 354.171875 368.152344 349.597656 368.152344 L 25.402344 368.152344 C 20.828125 368.152344 16.441406 366.335938 13.203125 363.101562 C 9.96875 359.863281 8.152344 355.476562 8.152344 350.902344 L 8.152344 24.097656 C 8.152344 19.523438 9.96875 15.136719 13.203125 11.898438 C 16.441406 8.664062 20.828125 6.847656 25.402344 6.847656 Z M 25.402344 6.847656 " clip-rule="nonzero"/></clipPath><clipPath id="13504bfa31"><path d="M 249 263 L 319 263 L 319 329 L 249 329 Z M 249 263 " clip-rule="nonzero"/></clipPath><clipPath id="480630e21e"><path d="M 327.085938 267.625 L 300.589844 336.984375 L 234.613281 311.78125 L 261.109375 242.421875 Z M 327.085938 267.625 " clip-rule="nonzero"/></clipPath><clipPath id="536fe91d23"><path d="M 327.085938 267.625 L 300.589844 336.984375 L 234.613281 311.78125 L 261.109375 242.421875 Z M 327.085938 267.625 " clip-rule="nonzero"/></clipPath><clipPath id="010828f5dc"><path d="M 127.582031 121.675781 L 267.023438 121.675781 L 267.023438 241 L 127.582031 241 Z M 127.582031 121.675781 " clip-rule="nonzero"/></clipPath><clipPath id="3e90b63132"><path d="M 179 121.675781 L 267.023438 121.675781 L 267.023438 273.796875 L 179 273.796875 Z M 179 121.675781 " clip-rule="nonzero"/></clipPath></defs><g clip-path="url(#bee0e69983)"><g clip-path="url(#2d69185160)"><path fill="#1b80bf" d="M 8.152344 6.847656 L 366.847656 6.847656 L 366.847656 368.347656 L 8.152344 368.347656 Z M 8.152344 6.847656 " fill-opacity="1" fill-rule="nonzero"/></g></g><g fill="#ffffff" fill-opacity="1"><g transform="translate(29.618945, 340.022475)"><g><path d="M 169.03125 3.75 C 142.238281 3.75 117.757812 -2.882812 95.59375 -16.15625 C 73.4375 -29.425781 55.972656 -47.578125 43.203125 -70.609375 C 30.429688 -93.648438 24.046875 -119.070312 24.046875 -146.875 C 24.046875 -174.425781 30.429688 -199.65625 43.203125 -222.5625 C 55.972656 -245.476562 73.4375 -263.632812 95.59375 -277.03125 C 117.757812 -290.425781 142.238281 -297.125 169.03125 -297.125 C 188.070312 -297.125 204.539062 -294.617188 218.4375 -289.609375 C 232.332031 -284.609375 246.414062 -276.347656 260.6875 -264.828125 C 263.695312 -262.578125 265.703125 -260.257812 266.703125 -257.875 C 267.703125 -255.5 268.203125 -252.679688 268.203125 -249.421875 C 268.203125 -244.410156 266.382812 -240.273438 262.75 -237.015625 C 259.125 -233.765625 254.929688 -232.140625 250.171875 -232.140625 C 245.421875 -232.140625 241.039062 -233.769531 237.03125 -237.03125 C 226.757812 -245.789062 216.738281 -252.113281 206.96875 -256 C 197.207031 -259.882812 184.5625 -261.828125 169.03125 -261.828125 C 149.5 -261.828125 131.53125 -256.691406 115.125 -246.421875 C 98.726562 -236.148438 85.707031 -222.1875 76.0625 -204.53125 C 66.425781 -186.875 61.609375 -167.65625 61.609375 -146.875 C 61.609375 -125.84375 66.425781 -106.5625 76.0625 -89.03125 C 85.707031 -71.5 98.726562 -57.597656 115.125 -47.328125 C 131.53125 -37.054688 149.5 -31.921875 169.03125 -31.921875 C 193.070312 -31.921875 216.113281 -40.1875 238.15625 -56.71875 C 242.414062 -59.726562 246.546875 -61.234375 250.546875 -61.234375 C 255.304688 -61.234375 259.25 -59.539062 262.375 -56.15625 C 265.507812 -52.78125 267.078125 -48.335938 267.078125 -42.828125 C 267.078125 -37.566406 265.070312 -32.929688 261.0625 -28.921875 C 234.019531 -7.140625 203.34375 3.75 169.03125 3.75 Z M 169.03125 3.75 "/></g></g></g><g clip-path="url(#13504bfa31)"><g clip-path="url(#480630e21e)"><g clip-path="url(#536fe91d23)"><path fill="#ff914d" d="M 317.570312 264.800781 C 318.566406 265.984375 318.609375 267.136719 317.695312 269.535156 C 316.777344 271.933594 315.855469 273.519531 313.027344 275.832031 C 308.761719 279.375 304.359375 282.867188 299.90625 286.492188 C 301.828125 298.382812 303.753906 310.261719 305.625 322.289062 C 305.667969 323.441406 305.238281 324.570312 304.492188 325.253906 C 303.550781 326.027344 302.609375 326.800781 301.472656 327.660156 C 300.089844 328.746094 298.515625 328.628906 297.425781 327.242188 C 297.199219 326.996094 296.992188 326.265625 296.820312 325.882812 C 293.839844 318.4375 290.867188 311.003906 287.75 303.507812 C 286.664062 302.125 285.433594 300.683594 284.257812 299.101562 C 280.746094 301.964844 277.230469 304.816406 273.664062 307.820312 C 272.628906 308.398438 271.851562 308.746094 270.875 309.179688 C 270.097656 309.53125 269.175781 309.824219 268.253906 310.121094 C 268.914062 312.632812 269.710938 315.203125 270.453125 317.910156 C 270.917969 319.21875 270.519531 320.683594 269.386719 321.542969 C 269.136719 321.769531 268.691406 322.085938 268.253906 322.398438 C 267.007812 323.542969 265.628906 323.335938 264.492188 322.09375 C 263.632812 320.957031 262.628906 319.769531 261.628906 318.578125 C 260.3125 316.941406 258.996094 315.3125 257.59375 313.484375 C 256.277344 311.847656 254.964844 310.210938 253.507812 308.527344 C 252.648438 307.390625 251.65625 306.203125 250.648438 305.007812 C 249.5625 303.625 249.761719 302.25 251.152344 301.164062 C 251.402344 300.933594 251.703125 300.5625 252.148438 300.25 C 253.285156 299.390625 254.769531 299.308594 255.929688 300.078125 C 258.359375 301.328125 260.789062 302.582031 263.226562 303.832031 C 263.546875 302.988281 263.921875 302.003906 264.53125 301.261719 C 265.136719 300.523438 265.738281 299.785156 266.539062 298.960938 C 270.054688 296.105469 273.566406 293.242188 277.089844 290.382812 C 276 289 274.769531 287.5625 273.597656 285.980469 C 266.910156 281.484375 260.222656 276.992188 253.539062 272.503906 C 253.253906 272.394531 252.605469 271.976562 252.234375 271.679688 C 251.148438 270.296875 251.40625 268.777344 252.644531 267.632812 C 253.589844 266.863281 254.527344 266.089844 255.667969 265.234375 C 256.554688 264.605469 257.753906 264.410156 258.796875 264.652344 L 292.785156 277.636719 C 297.050781 274.09375 301.453125 270.601562 305.910156 266.972656 C 308.730469 264.65625 310.378906 264.152344 312.976562 263.691406 C 315.527344 263.375 316.570312 263.605469 317.570312 264.800781 " fill-opacity="1" fill-rule="evenodd"/></g></g></g><g clip-path="url(#010828f5dc)"><path fill="#ffffff" d="M 127.597656 144.957031 L 166.886719 225.390625 L 162.132812 240.199219 L 267.046875 121.675781 L 186.066406 197.359375 L 160.683594 144.957031 Z M 127.597656 144.957031 " fill-opacity="1" fill-rule="evenodd"/></g><g clip-path="url(#3e90b63132)"><path fill="#ffffff" d="M 267.046875 121.675781 L 179.207031 249.460938 L 191.503906 273.558594 Z M 267.046875 121.675781 " fill-opacity="1" fill-rule="evenodd"/></g></svg>