<svg xmlns="http://www.w3.org/2000/svg" xmlns:xlink="http://www.w3.org/1999/xlink" width="500" zoomAndPan="magnify" viewBox="0 0 375 374.999991" height="500" preserveAspectRatio="xMidYMid meet" version="1.0"><defs><g/><clipPath id="89caabda3c"><path d="M 267 274 L 353 274 L 353 355 L 267 355 Z M 267 274 " clip-rule="nonzero"/></clipPath><clipPath id="7f6e461450"><path d="M 362.921875 279.402344 L 330 365.578125 L 248.027344 334.261719 L 280.949219 248.085938 Z M 362.921875 279.402344 " clip-rule="nonzero"/></clipPath><clipPath id="41282f22c8"><path d="M 362.921875 279.402344 L 330 365.578125 L 248.027344 334.261719 L 280.949219 248.085938 Z M 362.921875 279.402344 " clip-rule="nonzero"/></clipPath><clipPath id="3dd989c756"><path d="M 115.042969 98.070312 L 288.292969 98.070312 L 288.292969 246 L 115.042969 246 Z M 115.042969 98.070312 " clip-rule="nonzero"/></clipPath><clipPath id="a73523677f"><path d="M 179 98.070312 L 288.292969 98.070312 L 288.292969 287 L 179 287 Z M 179 98.070312 " clip-rule="nonzero"/></clipPath></defs><g fill="#ffffff" fill-opacity="1"><g transform="translate(-6.670226, 369.353199)"><g><path d="M 210.015625 4.671875 C 176.722656 4.671875 146.304688 -3.570312 118.765625 -20.0625 C 91.234375 -36.550781 69.535156 -59.109375 53.671875 -87.734375 C 37.804688 -116.359375 29.875 -147.941406 29.875 -182.484375 C 29.875 -216.703125 37.804688 -248.046875 53.671875 -276.515625 C 69.535156 -304.984375 91.234375 -327.539062 118.765625 -344.1875 C 146.304688 -360.832031 176.722656 -369.15625 210.015625 -369.15625 C 233.660156 -369.15625 254.117188 -366.046875 271.390625 -359.828125 C 288.660156 -353.609375 306.160156 -343.34375 323.890625 -329.03125 C 327.628906 -326.226562 330.117188 -323.347656 331.359375 -320.390625 C 332.597656 -317.429688 333.21875 -313.929688 333.21875 -309.890625 C 333.21875 -303.671875 330.960938 -298.535156 326.453125 -294.484375 C 321.941406 -290.441406 316.734375 -288.421875 310.828125 -288.421875 C 304.910156 -288.421875 299.460938 -290.441406 294.484375 -294.484375 C 281.734375 -305.378906 269.289062 -313.238281 257.15625 -318.0625 C 245.019531 -322.882812 229.304688 -325.296875 210.015625 -325.296875 C 185.742188 -325.296875 163.414062 -318.914062 143.03125 -306.15625 C 122.65625 -293.394531 106.476562 -276.046875 94.5 -254.109375 C 82.53125 -232.179688 76.546875 -208.304688 76.546875 -182.484375 C 76.546875 -156.347656 82.53125 -132.390625 94.5 -110.609375 C 106.476562 -88.828125 122.65625 -71.554688 143.03125 -58.796875 C 163.414062 -46.046875 185.742188 -39.671875 210.015625 -39.671875 C 239.878906 -39.671875 268.503906 -49.9375 295.890625 -70.46875 C 301.179688 -74.207031 306.316406 -76.078125 311.296875 -76.078125 C 317.203125 -76.078125 322.097656 -73.972656 325.984375 -69.765625 C 329.878906 -65.566406 331.828125 -60.046875 331.828125 -53.203125 C 331.828125 -46.671875 329.335938 -40.914062 324.359375 -35.9375 C 290.753906 -8.863281 252.640625 4.671875 210.015625 4.671875 Z M 210.015625 4.671875 "/></g></g></g><g clip-path="url(#89caabda3c)"><g clip-path="url(#7f6e461450)"><g clip-path="url(#41282f22c8)"><path fill="#ff914d" d="M 351.09375 275.890625 C 352.335938 277.367188 352.390625 278.796875 351.25 281.777344 C 350.113281 284.757812 348.96875 286.726562 345.453125 289.601562 C 340.15625 294.003906 334.683594 298.339844 329.148438 302.847656 C 331.539062 317.617188 333.929688 332.378906 336.253906 347.320312 C 336.308594 348.75 335.773438 350.152344 334.847656 351.003906 C 333.679688 351.964844 332.507812 352.925781 331.09375 353.992188 C 329.378906 355.34375 327.421875 355.195312 326.070312 353.472656 C 325.785156 353.167969 325.527344 352.261719 325.316406 351.785156 C 321.613281 342.535156 317.917969 333.296875 314.046875 323.984375 C 312.695312 322.265625 311.167969 320.480469 309.710938 318.511719 C 305.34375 322.070312 300.976562 325.613281 296.546875 329.339844 C 295.257812 330.0625 294.292969 330.492188 293.078125 331.035156 C 292.117188 331.46875 290.96875 331.835938 289.824219 332.203125 C 290.644531 335.324219 291.632812 338.515625 292.554688 341.878906 C 293.132812 343.503906 292.640625 345.324219 291.234375 346.394531 C 290.917969 346.671875 290.367188 347.070312 289.820312 347.457031 C 288.273438 348.875 286.5625 348.621094 285.148438 347.074219 C 284.078125 345.667969 282.832031 344.191406 281.589844 342.710938 C 279.957031 340.679688 278.324219 338.652344 276.578125 336.378906 C 274.945312 334.347656 273.3125 332.3125 271.5 330.222656 C 270.433594 328.808594 269.199219 327.332031 267.949219 325.851562 C 266.601562 324.132812 266.847656 322.425781 268.574219 321.070312 C 268.886719 320.785156 269.257812 320.328125 269.8125 319.9375 C 271.222656 318.871094 273.066406 318.765625 274.511719 319.722656 C 277.527344 321.28125 280.550781 322.835938 283.574219 324.386719 C 283.976562 323.335938 284.441406 322.117188 285.199219 321.191406 C 285.949219 320.277344 286.695312 319.359375 287.691406 318.335938 C 292.0625 314.789062 296.425781 311.230469 300.800781 307.679688 C 299.445312 305.960938 297.921875 304.175781 296.464844 302.207031 C 288.15625 296.625 279.84375 291.039062 271.539062 285.460938 C 271.1875 285.328125 270.378906 284.8125 269.917969 284.4375 C 268.570312 282.722656 268.890625 280.832031 270.429688 279.410156 C 271.605469 278.457031 272.769531 277.496094 274.1875 276.429688 C 275.289062 275.648438 276.777344 275.410156 278.074219 275.707031 L 320.304688 291.839844 C 325.601562 287.4375 331.074219 283.101562 336.609375 278.589844 C 340.113281 275.714844 342.160156 275.085938 345.390625 274.519531 C 348.558594 274.121094 349.851562 274.40625 351.09375 275.890625 " fill-opacity="1" fill-rule="evenodd"/></g></g></g><g clip-path="url(#3dd989c756)"><path fill="#ffffff" d="M 115.0625 126.992188 L 163.875 226.929688 L 157.96875 245.328125 L 288.324219 98.070312 L 187.707031 192.101562 L 156.171875 126.992188 Z M 115.0625 126.992188 " fill-opacity="1" fill-rule="evenodd"/></g><g clip-path="url(#a73523677f)"><path fill="#ffffff" d="M 288.324219 98.070312 L 179.1875 256.835938 L 194.460938 286.777344 Z M 288.324219 98.070312 " fill-opacity="1" fill-rule="evenodd"/></g></svg>